Coordinates
version=1
nRows=14
nColumns=36
inDegrees=yes

Units are S.I. units (second, meters, Newtons, ...)
If the header above contains a line with 'inDegrees', this indicates whether rotational values are in degrees (yes) or radians (no).

endheader
time	pelvis_tilt	pelvis_list	pelvis_rotation	pelvis_tx	pelvis_ty	pelvis_tz	hip_flexion_r	hip_adduction_r	hip_rotation_r	knee_angle_r	knee_angle_r_beta	ankle_angle_r	subtalar_angle_r	mtp_angle_r	hip_flexion_l	hip_adduction_l	hip_rotation_l	knee_angle_l	knee_angle_l_beta	ankle_angle_l	subtalar_angle_l	mtp_angle_l	lumbar_extension	lumbar_bending	lumbar_rotation	arm_flex_r	arm_add_r	arm_rot_r	elbow_flex_r	pro_sup_r	arm_flex_l	arm_add_l	arm_rot_l	elbow_flex_l	pro_sup_l
     14.90000000	      8.75354996	     -4.93605816	    175.57161948	      0.50126850	      0.90905191	      0.70781813	     31.38309434	     -6.08411640	      1.67367480	      9.89417786	      0.17268598	    -15.92355418	     -4.29150259	     -7.49999987	      6.72950013	      4.89635743	      1.53208177	     35.55621318	      0.62057299	     11.81312899	     -6.86963392	     -7.49999987	     -3.30498438	     -6.97562838	     -3.46997418	     -4.39415143	      0.05369168	    -19.43786868	     15.56521183	     89.21971811	     20.80394061	    -18.12771898	      9.26288423	     25.91319891	     96.14834532
     14.91666670	      8.27569928	     -4.32443103	    175.26663749	      0.50045313	      0.90906293	      0.70567187	     31.30825878	     -4.94397456	      2.09623563	     11.91953597	      0.20803515	    -15.31812446	     -4.76550755	     -7.49999987	      7.78910879	      4.08263602	      1.41848680	     41.25398338	      0.72001784	     10.81262564	     -7.72959606	     -7.49999987	     -4.16017329	     -6.05621238	     -2.59069316	     -3.59172158	     -0.54518642	    -19.21096619	     15.96627379	     89.31597486	     20.32628581	    -17.70674209	      8.93780621	     26.15801357	     96.15879117
     14.93333330	      8.40462801	     -3.44312129	    174.94525749	      0.49883892	      0.90771932	      0.70258616	     31.80933667	     -3.38719412	      2.15367072	     14.61648813	      0.25510584	    -14.30240256	     -5.68129557	     -7.49999987	     10.00056486	      2.91348863	      1.34671358	     47.90434397	      0.83608853	      9.60705647	     -8.60900964	     -7.49999987	     -4.00155310	     -4.85598711	     -1.29422593	     -2.91341609	     -1.30764489	    -18.56600218	     16.67915970	     89.43999143	     19.38643993	    -16.74909397	      8.13670355	     26.49047033	     96.00408472
     14.95000000	      8.41515367	     -2.45047196	    174.40129607	      0.49693083	      0.90618772	      0.69714208	     32.23794488	     -1.46915215	      2.28470350	     18.19826555	      0.31761965	    -12.08596760	     -6.82030146	     -7.49999987	     12.23781426	      1.51216818	      1.15194954	     54.64061909	      0.95365871	      8.17679176	     -8.98835186	     -7.49999987	     -3.68626312	     -3.63040890	     -0.52876194	     -1.61087940	     -2.23919022	    -16.28273902	     16.87716643	     90.10379857	     18.01288884	    -15.64509572	      5.88777925	     25.52314691	     96.24739178
     14.96666670	      8.00708122	     -1.17040549	    174.15563174	      0.49549640	      0.90582113	      0.69159822	     31.73014479	      0.61291030	      2.11961439	     21.40736061	      0.37362893	     -9.25025020	     -7.90413251	     -7.49999987	     14.11887168	     -0.12245198	      1.37556041	     60.94072722	      1.06361634	      6.25378961	     -8.87276116	     -7.49999987	     -3.94150408	     -2.26736812	      0.25432880	     -0.23186422	     -2.94060381	    -15.47871580	     17.10033572	     90.23774408	     17.17244997	    -14.73275007	      5.47625180	     24.82128381	     96.34477620
     14.98333330	      7.65795966	     -0.27307622	    174.21431664	      0.49692279	      0.90677769	      0.68861358	     30.93500445	      2.17664142	      2.04108016	     23.89791893	      0.41709737	     -6.24320651	     -8.40649169	     -7.49999987	     16.33268344	     -1.15270710	      1.82457615	     66.44081397	      1.15961096	      3.82772041	     -8.73982464	     -7.49999987	     -4.13643554	     -1.39451192	      0.60396205	      1.18468523	     -3.55989469	    -13.98153463	     17.68254716	     90.50880662	     16.73244036	    -13.98645544	      4.93758330	     23.45853833	     96.53477509
     15.00000000	      7.16798827	      0.27424606	    174.63633505	      0.50211353	      0.90920469	      0.68915932	     29.73678338	      3.12428687	      2.05985589	     25.50455470	      0.44513845	     -3.94593328	     -8.70905389	     -7.49999987	     18.76369626	     -1.43770487	      2.55172262	     70.92450428	      1.23786612	      1.34469723	     -8.92139492	     -7.49999987	     -4.90583512	     -0.88738597	      0.75557289	      2.71571302	     -4.10816872	    -13.24523059	     18.84315371	     90.50119960	     16.48492251	    -13.55520212	      4.84611884	     22.94263758	     96.49206716
     15.01666670	      6.88034275	      0.20002997	    175.19476817	      0.50780337	      0.91140773	      0.69141894	     28.80742526	      3.19214404	      1.98715490	     26.85955693	      0.46878770	     -2.25752840	     -8.21660315	     -7.49999987	     21.77647654	     -0.85408982	      3.07656829	     74.39781935	      1.29848690	     -0.51863790	     -9.44329857	     -7.49999987	     -5.64902298	     -0.96499893	      0.85296757	      4.36760012	     -4.91145774	    -11.43798437	     20.40914195	     90.63277431	     16.41421016	    -13.15305720	      4.62790828	     22.06897766	     96.58027680
     15.03333330	      6.62860715	      0.03704235	    175.93699315	      0.51053838	      0.91353005	      0.69343786	     27.81738534	      2.92454151	      1.80086209	     28.00248412	      0.48873555	     -1.31252014	     -7.51831657	     -7.49999987	     24.87881554	     -0.09474941	      3.46071697	     76.66706746	      1.33809275	     -1.72613949	    -10.37977117	     -7.49999987	     -6.43727271	     -1.00189529	      0.71681954	      6.43937926	     -5.85175395	    -10.12286893	     21.60296504	     89.56882459	     16.12122263	    -12.79056888	      4.51137557	     20.96061896	     95.43596773
     15.05000000	      6.32831605	     -0.17200760	    176.61300253	      0.51054361	      0.91614828	      0.69336495	     26.66676748	      2.60408690	      1.92590145	     28.98519691	      0.50588712	     -0.88481226	     -7.51109835	     -7.49999987	     27.81226878	      0.51212448	      3.52713603	     77.76578876	      1.35726906	     -2.29025990	    -11.47912466	     -7.49999987	     -7.29376260	     -1.12171075	      0.50952815	      8.45886801	     -6.46995536	     -9.64823012	     22.94973000	     87.96683293	     15.40374112	    -12.47607411	      4.39345993	     19.89237322	     93.42564131
     15.06666670	      6.24767649	     -0.21202165	    177.08632991	      0.50991660	      0.91752330	      0.69098158	     25.77078529	      2.45630250	      2.03362179	     30.07343750	      0.52488050	     -0.03506012	     -6.66269461	     -7.49999987	     30.76871750	      0.57627112	      3.28341459	     77.85876976	      1.35889188	     -2.28843433	    -12.03454427	     -7.49999987	     -7.68522457	     -1.16456281	      0.97947211	      9.87856299	     -7.59316654	     -8.30970853	     24.19812906	     88.57089550	     15.36636797	    -11.72399077	      3.36172723	     17.33472463	     93.36899443
     15.08333330	      6.03627935	     -0.02787155	    177.43228651	      0.50981555	      0.91807568	      0.68745553	     24.75964560	      2.65689626	      2.37855915	     30.97715999	      0.54065343	      0.30439133	     -7.00414784	     -7.49999987	     33.03311978	      0.15872479	      2.95262336	     76.53626528	      1.33580983	     -2.43123376	    -12.57800243	     -7.49999987	     -8.27718724	     -0.93043838	      1.07014321	     11.61965867	     -8.24167430	     -8.27469673	     25.40284389	     88.35674772	     14.57844138	    -11.53788373	      2.99741335	     16.30026843	     93.03960328
     15.10000000	      5.92799252	      0.16348646	    177.61330071	      0.51019764	      0.91836785	      0.68575261	     24.04732276	      2.84585327	      2.59544400	     31.93623269	      0.55739241	      1.19246726	     -7.61560647	     -7.49999987	     34.67146181	     -0.41274475	      2.32874512	     73.82763618	      1.28853533	     -2.49025340	    -12.71593633	     -7.49999987	     -8.57310712	     -0.80136524	      1.53521430	     12.70244109	     -9.11475543	     -7.74809848	     26.94585506	     88.48948674	     14.43372814	    -10.81674482	     -0.03945382	     14.25257409	     92.45070783
     15.11666670	      5.87185872	      0.31777127	    177.67010602	      0.51110975	      0.92007142	      0.68737039	     23.43368968	      2.88158301	      2.64665736	     32.65197171	      0.56988441	      2.16123669	     -8.87665443	     -7.49999987	     35.69110082	     -0.94295104	      1.35098314	     70.04294121	      1.22247994	     -2.48342979	    -12.78906422	     -7.49999987	     -8.77540741	     -0.68272146	      1.91156475	     13.73025829	     -9.75003192	     -7.92684183	     27.94061735	     88.45728533	     14.07374523	    -10.31923005	     -2.03998097	     12.97167385	     92.36590615
